<svg xmlns="http://www.w3.org/2000/svg" viewBox="0 0 320 14" preserveAspectRatio="none" aria-hidden="true" shape-rendering="crispEdges"><defs><pattern id="g" width="8" height="8" patternUnits="userSpaceOnUse"><rect width="8" height="8" fill="#6DB33F"/><path fill="#4E9A3A" d="M0 0h3v3H0zM5 4h3v4H5z"/><path fill="#8CC63F" d="M4 0h4v3H4zM0 5h3v3H0z"/></pattern></defs><path fill="#262626" d="M0 5h320v9H0z"/><path fill="url(#g)" d="M0 6h320v8H0z"/><path fill="#E53935" d="M28 2h3v4h-3zm-1 1h5v2h-5zm133-1h3v4h-3zm-1 1h5v2h-5z"/><path fill="#F2C230" d="M92 1h3v5h-3zm-1 1h5v3h-5zm143 0h3v4h-3zm-1 1h5v2h-5z"/></svg>
